<?xml version="1.0" encoding="UTF-8" standalone="no"?>
<!DOCTYPE svg PUBLIC "-//W3C//DTD SVG 1.1//EN"
 "http://www.w3.org/Graphics/SVG/1.1/DTD/svg11.dtd">
<!-- Generated by graphviz version 2.44.1 (20200629.0846)
 -->
<!-- Title: G Pages: 1 -->
<svg width="1190pt" height="917pt"
 viewBox="0.00 0.00 1189.99 917.00" xmlns="http://www.w3.org/2000/svg" xmlns:xlink="http://www.w3.org/1999/xlink">
<g id="graph0" class="graph" transform="scale(1 1) rotate(0) translate(4 913)">
<title>G</title>
<polygon fill="white" stroke="transparent" points="-4,4 -4,-913 1185.99,-913 1185.99,4 -4,4"/>
<!-- class&#45;34354681072 -->
<g id="node1" class="node">
<title>class&#45;34354681072</title>
<polygon fill="none" stroke="black" points="446,-909 0,-909 0,-807 446,-807 446,-909"/>
<polygon fill="none" stroke="black" points="10,-882 10,-903 436,-903 436,-882 10,-882"/>
<text text-anchor="start" x="14" y="-888.8" font-family="Times,serif" font-size="14.00">[Ljava/util/concurrent/ConcurrentHashMap$Node; (0x00000007FFB2D4F0)</text>
<polygon fill="none" stroke="black" points="10,-859 10,-880 436,-880 436,-859 10,-859"/>
<text text-anchor="start" x="126" y="-865.8" font-family="Times,serif" font-size="14.00">Superclass: 0x00000007FFB2FB08</text>
<polygon fill="none" stroke="black" points="10,-836 10,-857 274,-857 274,-836 10,-836"/>
<text text-anchor="start" x="86" y="-842.8" font-family="Times,serif" font-size="14.00">Instance size (bytes)</text>
<polygon fill="none" stroke="black" points="276,-836 276,-857 436,-857 436,-836 276,-836"/>
<text text-anchor="start" x="352.5" y="-842.8" font-family="Times,serif" font-size="14.00">0</text>
<polygon fill="none" stroke="black" points="10,-813 10,-834 436,-834 436,-813 10,-813"/>
<text text-anchor="start" x="180" y="-819.8" font-family="Times,serif" font-size="14.00">(array contents)</text>
</g>
<!-- class&#45;34354681184 -->
<g id="node5" class="node">
<title>class&#45;34354681184</title>
<polygon fill="none" stroke="black" points="437.5,-733 8.5,-733 8.5,-539 437.5,-539 437.5,-733"/>
<polygon fill="none" stroke="black" points="19,-706 19,-727 428,-727 428,-706 19,-706"/>
<text text-anchor="start" x="23" y="-712.8" font-family="Times,serif" font-size="14.00">java/util/concurrent/ConcurrentHashMap$Node (0x00000007FFB2D560)</text>
<polygon fill="none" stroke="black" points="19,-683 19,-704 428,-704 428,-683 19,-683"/>
<text text-anchor="start" x="126.5" y="-689.8" font-family="Times,serif" font-size="14.00">Superclass: 0x00000007FFB2FB08</text>
<polygon fill="none" stroke="black" points="19,-660 19,-681 254,-681 254,-660 19,-660"/>
<text text-anchor="start" x="80.5" y="-666.8" font-family="Times,serif" font-size="14.00">Instance size (bytes)</text>
<polygon fill="none" stroke="black" points="256,-660 256,-681 428,-681 428,-660 256,-660"/>
<text text-anchor="start" x="335" y="-666.8" font-family="Times,serif" font-size="14.00">28</text>
<polygon fill="none" stroke="black" points="19,-637 19,-658 428,-658 428,-637 19,-637"/>
<text text-anchor="start" x="155" y="-643.8" font-family="Times,serif" font-size="14.00">Instance field descriptors</text>
<polygon fill="none" stroke="black" points="19,-614 19,-635 254,-635 254,-614 19,-614"/>
<text text-anchor="start" x="124.5" y="-620.8" font-family="Times,serif" font-size="14.00">next</text>
<polygon fill="none" stroke="black" points="256,-614 256,-635 428,-635 428,-614 256,-614"/>
<text text-anchor="start" x="318" y="-620.8" font-family="Times,serif" font-size="14.00">ObjectId</text>
<polygon fill="none" stroke="black" points="19,-591 19,-612 254,-612 254,-591 19,-591"/>
<text text-anchor="start" x="128" y="-597.8" font-family="Times,serif" font-size="14.00">val</text>
<polygon fill="none" stroke="black" points="256,-591 256,-612 428,-612 428,-591 256,-591"/>
<text text-anchor="start" x="318" y="-597.8" font-family="Times,serif" font-size="14.00">ObjectId</text>
<polygon fill="none" stroke="black" points="19,-568 19,-589 254,-589 254,-568 19,-568"/>
<text text-anchor="start" x="126.5" y="-574.8" font-family="Times,serif" font-size="14.00">key</text>
<polygon fill="none" stroke="black" points="256,-568 256,-589 428,-589 428,-568 256,-568"/>
<text text-anchor="start" x="318" y="-574.8" font-family="Times,serif" font-size="14.00">ObjectId</text>
<polygon fill="none" stroke="black" points="19,-545 19,-566 254,-566 254,-545 19,-545"/>
<text text-anchor="start" x="124" y="-551.8" font-family="Times,serif" font-size="14.00">hash</text>
<polygon fill="none" stroke="black" points="256,-545 256,-566 428,-566 428,-545 256,-545"/>
<text text-anchor="start" x="334" y="-551.8" font-family="Times,serif" font-size="14.00">Int</text>
</g>
<!-- class&#45;34354681072&#45;&gt;class&#45;34354681184 -->
<g id="edge4" class="edge">
<title>class&#45;34354681072:array&#45;contents&#45;&gt;class&#45;34354681184</title>
<path fill="none" stroke="black" stroke-width="3.18" d="M223,-812C223,-789.87 223,-766.16 223,-743.57"/>
<polygon fill="black" stroke="black" stroke-width="3.18" points="226.5,-743.28 223,-733.28 219.5,-743.28 226.5,-743.28"/>
<text text-anchor="middle" x="240" y="-777.8" font-family="Times,serif" font-size="14.00">x1225</text>
</g>
<!-- class&#45;34354690712 -->
<g id="node2" class="node">
<title>class&#45;34354690712</title>
<polygon fill="none" stroke="black" points="732,-687 456,-687 456,-585 732,-585 732,-687"/>
<polygon fill="none" stroke="black" points="466,-660 466,-681 722,-681 722,-660 466,-660"/>
<text text-anchor="start" x="470" y="-666.8" font-family="Times,serif" font-size="14.00">[Ljava/lang/Object; (0x00000007FFB2FA98)</text>
<polygon fill="none" stroke="black" points="466,-637 466,-658 722,-658 722,-637 466,-637"/>
<text text-anchor="start" x="497" y="-643.8" font-family="Times,serif" font-size="14.00">Superclass: 0x00000007FFB2FB08</text>
<polygon fill="none" stroke="black" points="466,-614 466,-635 645,-635 645,-614 466,-614"/>
<text text-anchor="start" x="499.5" y="-620.8" font-family="Times,serif" font-size="14.00">Instance size (bytes)</text>
<polygon fill="none" stroke="black" points="647,-614 647,-635 722,-635 722,-614 647,-614"/>
<text text-anchor="start" x="681" y="-620.8" font-family="Times,serif" font-size="14.00">0</text>
<polygon fill="none" stroke="black" points="466,-591 466,-612 722,-612 722,-591 466,-591"/>
<text text-anchor="start" x="551" y="-597.8" font-family="Times,serif" font-size="14.00">(array contents)</text>
</g>
<!-- class&#45;34354677688 -->
<g id="node4" class="node">
<title>class&#45;34354677688</title>
<polygon fill="none" stroke="black" points="812.5,-465 375.5,-465 375.5,-87 812.5,-87 812.5,-465"/>
<polygon fill="none" stroke="black" points="386,-438 386,-459 803,-459 803,-438 386,-438"/>
<text text-anchor="start" x="480" y="-444.8" font-family="Times,serif" font-size="14.00">java/lang/String (0x00000007FFB2C7B8)</text>
<polygon fill="none" stroke="black" points="386,-415 386,-436 803,-436 803,-415 386,-415"/>
<text text-anchor="start" x="497.5" y="-421.8" font-family="Times,serif" font-size="14.00">Superclass: 0x00000007FFB2FB08</text>
<polygon fill="none" stroke="black" points="386,-392 386,-413 569,-413 569,-392 386,-392"/>
<text text-anchor="start" x="421.5" y="-398.8" font-family="Times,serif" font-size="14.00">Instance size (bytes)</text>
<polygon fill="none" stroke="black" points="571,-392 571,-413 803,-413 803,-392 571,-392"/>
<text text-anchor="start" x="680" y="-398.8" font-family="Times,serif" font-size="14.00">14</text>
<polygon fill="none" stroke="black" points="386,-369 386,-390 803,-390 803,-369 386,-369"/>
<text text-anchor="start" x="562" y="-375.8" font-family="Times,serif" font-size="14.00">Static fields</text>
<polygon fill="none" stroke="black" points="386,-346 386,-367 569,-367 569,-346 386,-346"/>
<text text-anchor="start" x="457.5" y="-352.8" font-family="Times,serif" font-size="14.00">UTF16</text>
<polygon fill="none" stroke="black" points="571,-346 571,-367 803,-367 803,-346 571,-346"/>
<text text-anchor="start" x="666" y="-352.8" font-family="Times,serif" font-size="14.00">Byte(1)</text>
<polygon fill="none" stroke="black" points="386,-323 386,-344 569,-344 569,-323 386,-323"/>
<text text-anchor="start" x="453.5" y="-329.8" font-family="Times,serif" font-size="14.00">LATIN1</text>
<polygon fill="none" stroke="black" points="571,-323 571,-344 803,-344 803,-323 571,-323"/>
<text text-anchor="start" x="666" y="-329.8" font-family="Times,serif" font-size="14.00">Byte(0)</text>
<polygon fill="none" stroke="black" points="386,-300 386,-321 569,-321 569,-300 386,-300"/>
<text text-anchor="start" x="389" y="-306.8" font-family="Times,serif" font-size="14.00">CASE_INSENSITIVE_ORDER</text>
<polygon fill="none" stroke="black" points="571,-300 571,-321 803,-321 803,-300 571,-300"/>
<text text-anchor="start" x="574" y="-306.8" font-family="Times,serif" font-size="14.00">ObjectId(Some(Id { id: 17498641528 }))</text>
<polygon fill="none" stroke="black" points="386,-277 386,-298 569,-298 569,-277 386,-277"/>
<text text-anchor="start" x="420" y="-283.8" font-family="Times,serif" font-size="14.00">serialPersistentFields</text>
<polygon fill="none" stroke="black" points="571,-277 571,-298 803,-298 803,-277 571,-277"/>
<text text-anchor="start" x="574" y="-283.8" font-family="Times,serif" font-size="14.00">ObjectId(Some(Id { id: 17498641512 }))</text>
<polygon fill="none" stroke="black" points="386,-254 386,-275 569,-275 569,-254 386,-254"/>
<text text-anchor="start" x="412.5" y="-260.8" font-family="Times,serif" font-size="14.00">COMPACT_STRINGS</text>
<polygon fill="none" stroke="black" points="571,-254 571,-275 803,-275 803,-254 571,-254"/>
<text text-anchor="start" x="649" y="-260.8" font-family="Times,serif" font-size="14.00">Boolean(true)</text>
<polygon fill="none" stroke="black" points="386,-231 386,-252 569,-252 569,-231 386,-231"/>
<text text-anchor="start" x="429" y="-237.8" font-family="Times,serif" font-size="14.00">serialVersionUID</text>
<polygon fill="none" stroke="black" points="571,-231 571,-252 803,-252 803,-231 571,-231"/>
<text text-anchor="start" x="601.5" y="-237.8" font-family="Times,serif" font-size="14.00">Long(&#45;6849794470754667710)</text>
<polygon fill="none" stroke="black" points="386,-208 386,-229 569,-229 569,-208 386,-208"/>
<text text-anchor="start" x="415" y="-214.8" font-family="Times,serif" font-size="14.00">&lt;resolved_references&gt;</text>
<polygon fill="none" stroke="black" points="571,-208 571,-229 803,-229 803,-208 571,-208"/>
<text text-anchor="start" x="574" y="-214.8" font-family="Times,serif" font-size="14.00">ObjectId(Some(Id { id: 34354707304 }))</text>
<polygon fill="none" stroke="black" points="386,-185 386,-206 803,-206 803,-185 386,-185"/>
<text text-anchor="start" x="526" y="-191.8" font-family="Times,serif" font-size="14.00">Instance field descriptors</text>
<polygon fill="none" stroke="black" points="386,-162 386,-183 569,-183 569,-162 386,-162"/>
<text text-anchor="start" x="447" y="-168.8" font-family="Times,serif" font-size="14.00">hashIsZero</text>
<polygon fill="none" stroke="black" points="571,-162 571,-183 803,-183 803,-162 571,-162"/>
<text text-anchor="start" x="664" y="-168.8" font-family="Times,serif" font-size="14.00">Boolean</text>
<polygon fill="none" stroke="black" points="386,-139 386,-160 569,-160 569,-139 386,-139"/>
<text text-anchor="start" x="465" y="-145.8" font-family="Times,serif" font-size="14.00">hash</text>
<polygon fill="none" stroke="black" points="571,-139 571,-160 803,-160 803,-139 571,-139"/>
<text text-anchor="start" x="679" y="-145.8" font-family="Times,serif" font-size="14.00">Int</text>
<polygon fill="none" stroke="black" points="386,-116 386,-137 569,-137 569,-116 386,-116"/>
<text text-anchor="start" x="462" y="-122.8" font-family="Times,serif" font-size="14.00">coder</text>
<polygon fill="none" stroke="black" points="571,-116 571,-137 803,-137 803,-116 571,-116"/>
<text text-anchor="start" x="674" y="-122.8" font-family="Times,serif" font-size="14.00">Byte</text>
<polygon fill="none" stroke="black" points="386,-93 386,-114 569,-114 569,-93 386,-93"/>
<text text-anchor="start" x="462.5" y="-99.8" font-family="Times,serif" font-size="14.00">value</text>
<polygon fill="none" stroke="black" points="571,-93 571,-114 803,-114 803,-93 571,-93"/>
<text text-anchor="start" x="663" y="-99.8" font-family="Times,serif" font-size="14.00">ObjectId</text>
</g>
<!-- class&#45;34354690712&#45;&gt;class&#45;34354677688 -->
<g id="edge6" class="edge">
<title>class&#45;34354690712:array&#45;contents&#45;&gt;class&#45;34354677688</title>
<path fill="none" stroke="black" stroke-width="5.56" d="M594,-590C594,-552.96 594,-513.46 594,-475.43"/>
<polygon fill="black" stroke="black" stroke-width="5.56" points="598.87,-475.27 594,-465.27 589.13,-475.27 598.87,-475.27"/>
<text text-anchor="middle" x="614.5" y="-486.8" font-family="Times,serif" font-size="14.00">x12181</text>
</g>
<!-- class&#45;34354677176 -->
<g id="node3" class="node">
<title>class&#45;34354677176</title>
<polygon fill="none" stroke="black" points="1104.5,-909 779.5,-909 779.5,-807 1104.5,-807 1104.5,-909"/>
<polygon fill="none" stroke="black" points="790,-882 790,-903 1095,-903 1095,-882 790,-882"/>
<text text-anchor="start" x="794" y="-888.8" font-family="Times,serif" font-size="14.00">[Ljava/util/HashMap$Node; (0x00000007FFB2C5B8)</text>
<polygon fill="none" stroke="black" points="790,-859 790,-880 1095,-880 1095,-859 790,-859"/>
<text text-anchor="start" x="845.5" y="-865.8" font-family="Times,serif" font-size="14.00">Superclass: 0x00000007FFB2FB08</text>
<polygon fill="none" stroke="black" points="790,-836 790,-857 994,-857 994,-836 790,-836"/>
<text text-anchor="start" x="836" y="-842.8" font-family="Times,serif" font-size="14.00">Instance size (bytes)</text>
<polygon fill="none" stroke="black" points="996,-836 996,-857 1095,-857 1095,-836 996,-836"/>
<text text-anchor="start" x="1042" y="-842.8" font-family="Times,serif" font-size="14.00">0</text>
<polygon fill="none" stroke="black" points="790,-813 790,-834 1095,-834 1095,-813 790,-813"/>
<text text-anchor="start" x="899.5" y="-819.8" font-family="Times,serif" font-size="14.00">(array contents)</text>
</g>
<!-- class&#45;34354677288 -->
<g id="node6" class="node">
<title>class&#45;34354677288</title>
<polygon fill="none" stroke="black" points="1135.5,-756 750.5,-756 750.5,-516 1135.5,-516 1135.5,-756"/>
<polygon fill="none" stroke="black" points="761,-729 761,-750 1126,-750 1126,-729 761,-729"/>
<text text-anchor="start" x="804.5" y="-735.8" font-family="Times,serif" font-size="14.00">java/util/HashMap$Node (0x00000007FFB2C628)</text>
<polygon fill="none" stroke="black" points="761,-706 761,-727 1126,-727 1126,-706 761,-706"/>
<text text-anchor="start" x="846.5" y="-712.8" font-family="Times,serif" font-size="14.00">Superclass: 0x00000007FFB2FB08</text>
<polygon fill="none" stroke="black" points="761,-683 761,-704 892,-704 892,-683 761,-683"/>
<text text-anchor="start" x="770.5" y="-689.8" font-family="Times,serif" font-size="14.00">Instance size (bytes)</text>
<polygon fill="none" stroke="black" points="894,-683 894,-704 1126,-704 1126,-683 894,-683"/>
<text text-anchor="start" x="1003" y="-689.8" font-family="Times,serif" font-size="14.00">28</text>
<polygon fill="none" stroke="black" points="761,-660 761,-681 1126,-681 1126,-660 761,-660"/>
<text text-anchor="start" x="911" y="-666.8" font-family="Times,serif" font-size="14.00">Static fields</text>
<polygon fill="none" stroke="black" points="761,-637 761,-658 892,-658 892,-637 761,-637"/>
<text text-anchor="start" x="764" y="-643.8" font-family="Times,serif" font-size="14.00">&lt;resolved_references&gt;</text>
<polygon fill="none" stroke="black" points="894,-637 894,-658 1126,-658 1126,-637 894,-637"/>
<text text-anchor="start" x="897" y="-643.8" font-family="Times,serif" font-size="14.00">ObjectId(Some(Id { id: 34354677400 }))</text>
<polygon fill="none" stroke="black" points="761,-614 761,-635 1126,-635 1126,-614 761,-614"/>
<text text-anchor="start" x="875" y="-620.8" font-family="Times,serif" font-size="14.00">Instance field descriptors</text>
<polygon fill="none" stroke="black" points="761,-591 761,-612 892,-612 892,-591 761,-591"/>
<text text-anchor="start" x="814.5" y="-597.8" font-family="Times,serif" font-size="14.00">next</text>
<polygon fill="none" stroke="black" points="894,-591 894,-612 1126,-612 1126,-591 894,-591"/>
<text text-anchor="start" x="986" y="-597.8" font-family="Times,serif" font-size="14.00">ObjectId</text>
<polygon fill="none" stroke="black" points="761,-568 761,-589 892,-589 892,-568 761,-568"/>
<text text-anchor="start" x="811.5" y="-574.8" font-family="Times,serif" font-size="14.00">value</text>
<polygon fill="none" stroke="black" points="894,-568 894,-589 1126,-589 1126,-568 894,-568"/>
<text text-anchor="start" x="986" y="-574.8" font-family="Times,serif" font-size="14.00">ObjectId</text>
<polygon fill="none" stroke="black" points="761,-545 761,-566 892,-566 892,-545 761,-545"/>
<text text-anchor="start" x="816.5" y="-551.8" font-family="Times,serif" font-size="14.00">key</text>
<polygon fill="none" stroke="black" points="894,-545 894,-566 1126,-566 1126,-545 894,-545"/>
<text text-anchor="start" x="986" y="-551.8" font-family="Times,serif" font-size="14.00">ObjectId</text>
<polygon fill="none" stroke="black" points="761,-522 761,-543 892,-543 892,-522 761,-522"/>
<text text-anchor="start" x="814" y="-528.8" font-family="Times,serif" font-size="14.00">hash</text>
<polygon fill="none" stroke="black" points="894,-522 894,-543 1126,-543 1126,-522 894,-522"/>
<text text-anchor="start" x="1002" y="-528.8" font-family="Times,serif" font-size="14.00">Int</text>
</g>
<!-- class&#45;34354677176&#45;&gt;class&#45;34354677288 -->
<g id="edge1" class="edge">
<title>class&#45;34354677176:array&#45;contents&#45;&gt;class&#45;34354677288</title>
<path fill="none" stroke="black" stroke-width="3.51" d="M943,-812C943,-797.17 943,-781.64 943,-766.2"/>
<polygon fill="black" stroke="black" stroke-width="3.51" points="946.5,-766.08 943,-756.08 939.5,-766.08 946.5,-766.08"/>
<text text-anchor="middle" x="960" y="-777.8" font-family="Times,serif" font-size="14.00">x1750</text>
</g>
<!-- prim&#45;array&#45;byte -->
<g id="node7" class="node">
<title>prim&#45;array&#45;byte</title>
<polygon fill="none" stroke="black" points="714,-36 660,-36 660,0 714,0 714,-36"/>
<text text-anchor="middle" x="687" y="-14.3" font-family="Times,serif" font-size="14.00">byte[]</text>
</g>
<!-- class&#45;34354677688&#45;&gt;prim&#45;array&#45;byte -->
<g id="edge5" class="edge">
<title>class&#45;34354677688:instance&#45;field&#45;val&#45;3&#45;&gt;prim&#45;array&#45;byte</title>
<path fill="none" stroke="black" stroke-width="5.26" d="M687,-92C687,-76.9 687,-60.04 687,-46.33"/>
<polygon fill="black" stroke="black" stroke-width="5.26" points="691.6,-46.11 687,-36.11 682.4,-46.11 691.6,-46.11"/>
<text text-anchor="middle" x="704" y="-57.8" font-family="Times,serif" font-size="14.00">x9395</text>
</g>
<!-- class&#45;34354681184&#45;&gt;class&#45;34354677688 -->
<g id="edge2" class="edge">
<title>class&#45;34354681184:instance&#45;field&#45;val&#45;2&#45;&gt;class&#45;34354677688</title>
<path fill="none" stroke="black" stroke-width="3.06" d="M429,-578C457.69,-578 435.38,-542.23 447,-516 453.11,-502.21 459.89,-488.25 467.1,-474.38"/>
<polygon fill="black" stroke="black" stroke-width="3.06" points="470.33,-475.76 471.89,-465.28 464.13,-472.5 470.33,-475.76"/>
<text text-anchor="middle" x="478" y="-486.8" font-family="Times,serif" font-size="14.00">x1076</text>
</g>
<!-- class&#45;34354677288&#45;&gt;class&#45;34354677688 -->
<g id="edge3" class="edge">
<title>class&#45;34354677288:instance&#45;field&#45;val&#45;2&#45;&gt;class&#45;34354677688</title>
<path fill="none" stroke="black" stroke-width="3.33" d="M1127,-555C1296.81,-555 1035.46,-442.7 822.42,-360.85"/>
<polygon fill="black" stroke="black" stroke-width="3.33" points="823.55,-357.53 812.96,-357.22 821.04,-364.07 823.55,-357.53"/>
<text text-anchor="middle" x="1146" y="-486.8" font-family="Times,serif" font-size="14.00">x1442</text>
</g>
</g>
</svg>
